<mxfile host="Electron" modified="2023-07-25T18:56:11.466Z" agent="Mozilla/5.0 (Windows NT 10.0; Win64; x64) AppleWebKit/537.36 (KHTML, like Gecko) draw.io/21.5.0 Chrome/112.0.5615.204 Electron/24.5.1 Safari/537.36" etag="C33WcG66iK6WRVApUe-G" version="21.5.0" type="device">
  <diagram name="Page-1" id="mPrgo01G92TENW37DWBM">
    <mxGraphModel dx="3854" dy="2410" grid="1" gridSize="10" guides="1" tooltips="1" connect="1" arrows="1" fold="1" page="1" pageScale="1" pageWidth="850" pageHeight="1100" math="0" shadow="0">
      <root>
        <mxCell id="0" />
        <mxCell id="1" parent="0" />
        <mxCell id="OWcikNP10raAviJz4xE2-1" value="employee" style="whiteSpace=wrap;html=1;align=center;" vertex="1" parent="1">
          <mxGeometry x="80" y="80" width="120" height="40" as="geometry" />
        </mxCell>
        <mxCell id="OWcikNP10raAviJz4xE2-3" value="emp_No" style="ellipse;whiteSpace=wrap;html=1;align=center;fontStyle=4;" vertex="1" parent="1">
          <mxGeometry x="-70" y="-20" width="100" height="40" as="geometry" />
        </mxCell>
        <mxCell id="OWcikNP10raAviJz4xE2-4" value="name&amp;nbsp;" style="ellipse;whiteSpace=wrap;html=1;align=center;" vertex="1" parent="1">
          <mxGeometry x="90" y="-70" width="100" height="40" as="geometry" />
        </mxCell>
        <mxCell id="OWcikNP10raAviJz4xE2-5" value="addres" style="ellipse;whiteSpace=wrap;html=1;align=center;" vertex="1" parent="1">
          <mxGeometry x="280" y="-50" width="100" height="40" as="geometry" />
        </mxCell>
        <mxCell id="OWcikNP10raAviJz4xE2-6" value="T_no" style="ellipse;shape=doubleEllipse;margin=3;whiteSpace=wrap;html=1;align=center;" vertex="1" parent="1">
          <mxGeometry x="-110" y="80" width="100" height="40" as="geometry" />
        </mxCell>
        <mxCell id="OWcikNP10raAviJz4xE2-7" value="Attribute" style="ellipse;whiteSpace=wrap;html=1;align=center;" vertex="1" parent="1">
          <mxGeometry x="320" y="20" width="100" height="40" as="geometry" />
        </mxCell>
        <mxCell id="OWcikNP10raAviJz4xE2-8" value="L.off" style="ellipse;whiteSpace=wrap;html=1;align=center;dashed=1;" vertex="1" parent="1">
          <mxGeometry x="-60" y="190" width="100" height="40" as="geometry" />
        </mxCell>
        <mxCell id="OWcikNP10raAviJz4xE2-9" value="" style="endArrow=none;html=1;rounded=0;exitX=1;exitY=1;exitDx=0;exitDy=0;" edge="1" parent="1" source="OWcikNP10raAviJz4xE2-3" target="OWcikNP10raAviJz4xE2-1">
          <mxGeometry relative="1" as="geometry">
            <mxPoint x="20" y="280" as="sourcePoint" />
            <mxPoint x="180" y="280" as="targetPoint" />
          </mxGeometry>
        </mxCell>
        <mxCell id="OWcikNP10raAviJz4xE2-10" value="" style="endArrow=none;html=1;rounded=0;entryX=0.5;entryY=0;entryDx=0;entryDy=0;" edge="1" parent="1" source="OWcikNP10raAviJz4xE2-4" target="OWcikNP10raAviJz4xE2-1">
          <mxGeometry relative="1" as="geometry">
            <mxPoint x="20" y="280" as="sourcePoint" />
            <mxPoint x="180" y="280" as="targetPoint" />
          </mxGeometry>
        </mxCell>
        <mxCell id="OWcikNP10raAviJz4xE2-11" value="" style="endArrow=none;html=1;rounded=0;exitX=0;exitY=1;exitDx=0;exitDy=0;entryX=0.75;entryY=0;entryDx=0;entryDy=0;" edge="1" parent="1" source="OWcikNP10raAviJz4xE2-5" target="OWcikNP10raAviJz4xE2-1">
          <mxGeometry relative="1" as="geometry">
            <mxPoint x="20" y="280" as="sourcePoint" />
            <mxPoint x="180" y="280" as="targetPoint" />
          </mxGeometry>
        </mxCell>
        <mxCell id="OWcikNP10raAviJz4xE2-12" value="" style="endArrow=none;html=1;rounded=0;exitX=1;exitY=0.5;exitDx=0;exitDy=0;entryX=0;entryY=0.5;entryDx=0;entryDy=0;" edge="1" parent="1" source="OWcikNP10raAviJz4xE2-6" target="OWcikNP10raAviJz4xE2-1">
          <mxGeometry relative="1" as="geometry">
            <mxPoint x="20" y="280" as="sourcePoint" />
            <mxPoint x="180" y="280" as="targetPoint" />
          </mxGeometry>
        </mxCell>
        <mxCell id="OWcikNP10raAviJz4xE2-14" value="" style="endArrow=none;html=1;rounded=0;exitX=1;exitY=0;exitDx=0;exitDy=0;entryX=0.25;entryY=1;entryDx=0;entryDy=0;" edge="1" parent="1" source="OWcikNP10raAviJz4xE2-8" target="OWcikNP10raAviJz4xE2-1">
          <mxGeometry relative="1" as="geometry">
            <mxPoint x="20" y="280" as="sourcePoint" />
            <mxPoint x="180" y="280" as="targetPoint" />
          </mxGeometry>
        </mxCell>
        <mxCell id="OWcikNP10raAviJz4xE2-15" value="Assosate" style="shape=rhombus;perimeter=rhombusPerimeter;whiteSpace=wrap;html=1;align=center;" vertex="1" parent="1">
          <mxGeometry x="80" y="360" width="120" height="60" as="geometry" />
        </mxCell>
        <mxCell id="OWcikNP10raAviJz4xE2-16" value="" style="endArrow=none;html=1;rounded=0;exitX=0.5;exitY=0;exitDx=0;exitDy=0;entryX=0.5;entryY=1;entryDx=0;entryDy=0;" edge="1" parent="1" source="OWcikNP10raAviJz4xE2-15" target="OWcikNP10raAviJz4xE2-1">
          <mxGeometry relative="1" as="geometry">
            <mxPoint x="20" y="280" as="sourcePoint" />
            <mxPoint x="150" y="120" as="targetPoint" />
          </mxGeometry>
        </mxCell>
        <mxCell id="OWcikNP10raAviJz4xE2-17" value="Entity" style="whiteSpace=wrap;html=1;align=center;" vertex="1" parent="1">
          <mxGeometry x="80" y="640" width="120" height="40" as="geometry" />
        </mxCell>
        <mxCell id="OWcikNP10raAviJz4xE2-18" value="" style="endArrow=none;html=1;rounded=0;exitX=0.5;exitY=1;exitDx=0;exitDy=0;" edge="1" parent="1" source="OWcikNP10raAviJz4xE2-15" target="OWcikNP10raAviJz4xE2-17">
          <mxGeometry relative="1" as="geometry">
            <mxPoint x="70" y="500" as="sourcePoint" />
            <mxPoint x="230" y="500" as="targetPoint" />
          </mxGeometry>
        </mxCell>
        <mxCell id="OWcikNP10raAviJz4xE2-19" value="T.No" style="ellipse;shape=doubleEllipse;margin=3;whiteSpace=wrap;html=1;align=center;" vertex="1" parent="1">
          <mxGeometry x="-130" y="640" width="100" height="40" as="geometry" />
        </mxCell>
        <mxCell id="OWcikNP10raAviJz4xE2-20" value="name&amp;nbsp;" style="ellipse;whiteSpace=wrap;html=1;align=center;" vertex="1" parent="1">
          <mxGeometry x="90" y="790" width="100" height="40" as="geometry" />
        </mxCell>
        <mxCell id="OWcikNP10raAviJz4xE2-21" value="CIN" style="ellipse;whiteSpace=wrap;html=1;align=center;fontStyle=4;" vertex="1" parent="1">
          <mxGeometry x="-80" y="760" width="100" height="40" as="geometry" />
        </mxCell>
        <mxCell id="OWcikNP10raAviJz4xE2-22" value="F_name" style="ellipse;whiteSpace=wrap;html=1;align=center;" vertex="1" parent="1">
          <mxGeometry x="30" y="870" width="90" height="40" as="geometry" />
        </mxCell>
        <mxCell id="OWcikNP10raAviJz4xE2-23" value="L_name" style="ellipse;whiteSpace=wrap;html=1;align=center;" vertex="1" parent="1">
          <mxGeometry x="170" y="870" width="90" height="40" as="geometry" />
        </mxCell>
        <mxCell id="OWcikNP10raAviJz4xE2-24" value="address" style="ellipse;whiteSpace=wrap;html=1;align=center;" vertex="1" parent="1">
          <mxGeometry x="250" y="770" width="100" height="40" as="geometry" />
        </mxCell>
        <mxCell id="OWcikNP10raAviJz4xE2-25" value="" style="endArrow=none;html=1;rounded=0;" edge="1" parent="1">
          <mxGeometry relative="1" as="geometry">
            <mxPoint x="200" y="660" as="sourcePoint" />
            <mxPoint x="460" y="660" as="targetPoint" />
          </mxGeometry>
        </mxCell>
        <mxCell id="OWcikNP10raAviJz4xE2-26" value="have" style="shape=rhombus;perimeter=rhombusPerimeter;whiteSpace=wrap;html=1;align=center;" vertex="1" parent="1">
          <mxGeometry x="460" y="630" width="120" height="60" as="geometry" />
        </mxCell>
        <mxCell id="OWcikNP10raAviJz4xE2-27" value="" style="endArrow=none;html=1;rounded=0;" edge="1" parent="1">
          <mxGeometry relative="1" as="geometry">
            <mxPoint x="580" y="659.33" as="sourcePoint" />
            <mxPoint x="760" y="660" as="targetPoint" />
          </mxGeometry>
        </mxCell>
        <mxCell id="OWcikNP10raAviJz4xE2-28" value="" style="endArrow=none;html=1;rounded=0;exitX=1;exitY=0.5;exitDx=0;exitDy=0;entryX=0;entryY=0.5;entryDx=0;entryDy=0;" edge="1" parent="1" source="OWcikNP10raAviJz4xE2-19" target="OWcikNP10raAviJz4xE2-17">
          <mxGeometry relative="1" as="geometry">
            <mxPoint x="150" y="720" as="sourcePoint" />
            <mxPoint x="310" y="720" as="targetPoint" />
            <Array as="points" />
          </mxGeometry>
        </mxCell>
        <mxCell id="OWcikNP10raAviJz4xE2-29" value="" style="endArrow=none;html=1;rounded=0;exitX=1;exitY=0;exitDx=0;exitDy=0;entryX=0.25;entryY=1;entryDx=0;entryDy=0;" edge="1" parent="1" source="OWcikNP10raAviJz4xE2-21" target="OWcikNP10raAviJz4xE2-17">
          <mxGeometry relative="1" as="geometry">
            <mxPoint x="50" y="720" as="sourcePoint" />
            <mxPoint x="210" y="720" as="targetPoint" />
          </mxGeometry>
        </mxCell>
        <mxCell id="OWcikNP10raAviJz4xE2-30" value="" style="endArrow=none;html=1;rounded=0;entryX=0.5;entryY=0;entryDx=0;entryDy=0;exitX=0.5;exitY=1;exitDx=0;exitDy=0;" edge="1" parent="1" source="OWcikNP10raAviJz4xE2-17" target="OWcikNP10raAviJz4xE2-20">
          <mxGeometry relative="1" as="geometry">
            <mxPoint x="50" y="720" as="sourcePoint" />
            <mxPoint x="210" y="720" as="targetPoint" />
          </mxGeometry>
        </mxCell>
        <mxCell id="OWcikNP10raAviJz4xE2-31" value="" style="endArrow=none;html=1;rounded=0;exitX=0.5;exitY=0;exitDx=0;exitDy=0;entryX=0.5;entryY=1;entryDx=0;entryDy=0;" edge="1" parent="1" source="OWcikNP10raAviJz4xE2-22" target="OWcikNP10raAviJz4xE2-20">
          <mxGeometry relative="1" as="geometry">
            <mxPoint x="50" y="720" as="sourcePoint" />
            <mxPoint x="210" y="720" as="targetPoint" />
          </mxGeometry>
        </mxCell>
        <mxCell id="OWcikNP10raAviJz4xE2-32" value="" style="endArrow=none;html=1;rounded=0;exitX=0.5;exitY=0;exitDx=0;exitDy=0;entryX=0.5;entryY=1;entryDx=0;entryDy=0;" edge="1" parent="1" source="OWcikNP10raAviJz4xE2-23" target="OWcikNP10raAviJz4xE2-20">
          <mxGeometry relative="1" as="geometry">
            <mxPoint x="50" y="720" as="sourcePoint" />
            <mxPoint x="210" y="720" as="targetPoint" />
          </mxGeometry>
        </mxCell>
        <mxCell id="OWcikNP10raAviJz4xE2-33" value="" style="endArrow=none;html=1;rounded=0;exitX=0.75;exitY=1;exitDx=0;exitDy=0;entryX=0;entryY=0;entryDx=0;entryDy=0;" edge="1" parent="1" source="OWcikNP10raAviJz4xE2-17" target="OWcikNP10raAviJz4xE2-24">
          <mxGeometry relative="1" as="geometry">
            <mxPoint x="50" y="720" as="sourcePoint" />
            <mxPoint x="210" y="720" as="targetPoint" />
          </mxGeometry>
        </mxCell>
        <mxCell id="OWcikNP10raAviJz4xE2-34" value="Entity" style="whiteSpace=wrap;html=1;align=center;" vertex="1" parent="1">
          <mxGeometry x="760" y="640" width="120" height="40" as="geometry" />
        </mxCell>
        <mxCell id="OWcikNP10raAviJz4xE2-39" value="is a" style="triangle;whiteSpace=wrap;html=1;rotation=-90;" vertex="1" parent="1">
          <mxGeometry x="790" y="730" width="60" height="80" as="geometry" />
        </mxCell>
        <mxCell id="OWcikNP10raAviJz4xE2-40" value="saving" style="ellipse;whiteSpace=wrap;html=1;align=center;" vertex="1" parent="1">
          <mxGeometry x="660" y="860" width="100" height="40" as="geometry" />
        </mxCell>
        <mxCell id="OWcikNP10raAviJz4xE2-41" value="current" style="ellipse;whiteSpace=wrap;html=1;align=center;" vertex="1" parent="1">
          <mxGeometry x="880" y="860" width="100" height="40" as="geometry" />
        </mxCell>
        <mxCell id="OWcikNP10raAviJz4xE2-42" value="" style="endArrow=none;html=1;rounded=0;" edge="1" parent="1" source="OWcikNP10raAviJz4xE2-40">
          <mxGeometry relative="1" as="geometry">
            <mxPoint x="830" y="620" as="sourcePoint" />
            <mxPoint x="780" y="800" as="targetPoint" />
          </mxGeometry>
        </mxCell>
        <mxCell id="OWcikNP10raAviJz4xE2-43" value="" style="endArrow=none;html=1;rounded=0;exitX=0.017;exitY=0.993;exitDx=0;exitDy=0;exitPerimeter=0;" edge="1" parent="1" source="OWcikNP10raAviJz4xE2-39" target="OWcikNP10raAviJz4xE2-41">
          <mxGeometry relative="1" as="geometry">
            <mxPoint x="830" y="620" as="sourcePoint" />
            <mxPoint x="990" y="620" as="targetPoint" />
          </mxGeometry>
        </mxCell>
        <mxCell id="OWcikNP10raAviJz4xE2-44" value="" style="endArrow=none;html=1;rounded=0;exitX=0.5;exitY=1;exitDx=0;exitDy=0;entryX=1;entryY=0.5;entryDx=0;entryDy=0;" edge="1" parent="1" source="OWcikNP10raAviJz4xE2-34" target="OWcikNP10raAviJz4xE2-39">
          <mxGeometry relative="1" as="geometry">
            <mxPoint x="830" y="620" as="sourcePoint" />
            <mxPoint x="990" y="620" as="targetPoint" />
          </mxGeometry>
        </mxCell>
        <mxCell id="OWcikNP10raAviJz4xE2-45" value="Acc.No" style="ellipse;whiteSpace=wrap;html=1;align=center;" vertex="1" parent="1">
          <mxGeometry x="770" y="510" width="100" height="40" as="geometry" />
        </mxCell>
        <mxCell id="OWcikNP10raAviJz4xE2-46" value="" style="endArrow=none;html=1;rounded=0;exitX=1;exitY=0.5;exitDx=0;exitDy=0;" edge="1" parent="1" source="OWcikNP10raAviJz4xE2-1">
          <mxGeometry relative="1" as="geometry">
            <mxPoint x="380" y="110" as="sourcePoint" />
            <mxPoint x="460" y="100" as="targetPoint" />
          </mxGeometry>
        </mxCell>
        <mxCell id="OWcikNP10raAviJz4xE2-47" value="work_on&amp;nbsp;" style="shape=rhombus;perimeter=rhombusPerimeter;whiteSpace=wrap;html=1;align=center;" vertex="1" parent="1">
          <mxGeometry x="460" y="70" width="120" height="60" as="geometry" />
        </mxCell>
        <mxCell id="OWcikNP10raAviJz4xE2-48" value="" style="endArrow=none;html=1;rounded=0;exitX=1;exitY=0.5;exitDx=0;exitDy=0;" edge="1" parent="1" source="OWcikNP10raAviJz4xE2-47">
          <mxGeometry relative="1" as="geometry">
            <mxPoint x="380" y="330" as="sourcePoint" />
            <mxPoint x="760" y="100" as="targetPoint" />
          </mxGeometry>
        </mxCell>
        <mxCell id="OWcikNP10raAviJz4xE2-49" value="Branch" style="whiteSpace=wrap;html=1;align=center;" vertex="1" parent="1">
          <mxGeometry x="760" y="80" width="120" height="40" as="geometry" />
        </mxCell>
        <mxCell id="OWcikNP10raAviJz4xE2-53" value="" style="endArrow=none;html=1;rounded=0;exitX=0.5;exitY=0;exitDx=0;exitDy=0;entryX=0.5;entryY=1;entryDx=0;entryDy=0;" edge="1" parent="1" source="OWcikNP10raAviJz4xE2-34" target="OWcikNP10raAviJz4xE2-45">
          <mxGeometry relative="1" as="geometry">
            <mxPoint x="570" y="550" as="sourcePoint" />
            <mxPoint x="730" y="550" as="targetPoint" />
          </mxGeometry>
        </mxCell>
        <mxCell id="OWcikNP10raAviJz4xE2-55" value="location&amp;nbsp;" style="ellipse;whiteSpace=wrap;html=1;align=center;" vertex="1" parent="1">
          <mxGeometry x="870" y="-20" width="100" height="40" as="geometry" />
        </mxCell>
        <mxCell id="OWcikNP10raAviJz4xE2-56" value="" style="endArrow=none;html=1;rounded=0;exitX=0.5;exitY=1;exitDx=0;exitDy=0;entryX=0.25;entryY=0;entryDx=0;entryDy=0;" edge="1" parent="1" target="OWcikNP10raAviJz4xE2-49">
          <mxGeometry relative="1" as="geometry">
            <mxPoint x="740" y="20" as="sourcePoint" />
            <mxPoint x="840" y="180" as="targetPoint" />
          </mxGeometry>
        </mxCell>
        <mxCell id="OWcikNP10raAviJz4xE2-57" value="" style="endArrow=none;html=1;rounded=0;exitX=0.5;exitY=1;exitDx=0;exitDy=0;entryX=0.75;entryY=0;entryDx=0;entryDy=0;" edge="1" parent="1" source="OWcikNP10raAviJz4xE2-55" target="OWcikNP10raAviJz4xE2-49">
          <mxGeometry relative="1" as="geometry">
            <mxPoint x="680" y="180" as="sourcePoint" />
            <mxPoint x="840" y="180" as="targetPoint" />
          </mxGeometry>
        </mxCell>
        <mxCell id="OWcikNP10raAviJz4xE2-58" value="name" style="ellipse;whiteSpace=wrap;html=1;align=center;fontStyle=4;" vertex="1" parent="1">
          <mxGeometry x="690" y="-20" width="100" height="40" as="geometry" />
        </mxCell>
        <mxCell id="OWcikNP10raAviJz4xE2-59" value="IAS" style="triangle;whiteSpace=wrap;html=1;rotation=-90;" vertex="1" parent="1">
          <mxGeometry x="290" y="200" width="60" height="80" as="geometry" />
        </mxCell>
        <mxCell id="OWcikNP10raAviJz4xE2-60" style="edgeStyle=orthogonalEdgeStyle;rounded=0;orthogonalLoop=1;jettySize=auto;html=1;exitX=0.5;exitY=1;exitDx=0;exitDy=0;" edge="1" parent="1" source="OWcikNP10raAviJz4xE2-7" target="OWcikNP10raAviJz4xE2-7">
          <mxGeometry relative="1" as="geometry" />
        </mxCell>
        <mxCell id="OWcikNP10raAviJz4xE2-62" value="" style="endArrow=none;html=1;rounded=0;exitX=1;exitY=0;exitDx=0;exitDy=0;entryX=0;entryY=1;entryDx=0;entryDy=0;" edge="1" parent="1" source="OWcikNP10raAviJz4xE2-1" target="OWcikNP10raAviJz4xE2-7">
          <mxGeometry relative="1" as="geometry">
            <mxPoint x="420" y="18" as="sourcePoint" />
            <mxPoint x="580" y="18" as="targetPoint" />
          </mxGeometry>
        </mxCell>
        <mxCell id="OWcikNP10raAviJz4xE2-63" value="" style="endArrow=none;html=1;rounded=0;exitX=0.75;exitY=1;exitDx=0;exitDy=0;" edge="1" parent="1" source="OWcikNP10raAviJz4xE2-1" target="OWcikNP10raAviJz4xE2-59">
          <mxGeometry relative="1" as="geometry">
            <mxPoint x="330" y="410" as="sourcePoint" />
            <mxPoint x="490" y="410" as="targetPoint" />
          </mxGeometry>
        </mxCell>
        <mxCell id="OWcikNP10raAviJz4xE2-64" value="loan officer&amp;nbsp;" style="ellipse;whiteSpace=wrap;html=1;align=center;" vertex="1" parent="1">
          <mxGeometry x="240" y="310" width="70" height="40" as="geometry" />
        </mxCell>
        <mxCell id="OWcikNP10raAviJz4xE2-65" value="personal banker" style="ellipse;whiteSpace=wrap;html=1;align=center;" vertex="1" parent="1">
          <mxGeometry x="335" y="310" width="70" height="40" as="geometry" />
        </mxCell>
        <mxCell id="OWcikNP10raAviJz4xE2-66" value="" style="endArrow=none;html=1;rounded=0;exitX=0;exitY=0.25;exitDx=0;exitDy=0;entryX=0.5;entryY=0;entryDx=0;entryDy=0;" edge="1" parent="1" source="OWcikNP10raAviJz4xE2-59" target="OWcikNP10raAviJz4xE2-64">
          <mxGeometry relative="1" as="geometry">
            <mxPoint x="330" y="410" as="sourcePoint" />
            <mxPoint x="490" y="410" as="targetPoint" />
          </mxGeometry>
        </mxCell>
        <mxCell id="OWcikNP10raAviJz4xE2-67" value="" style="endArrow=none;html=1;rounded=0;entryX=0.5;entryY=0;entryDx=0;entryDy=0;exitX=0;exitY=0.75;exitDx=0;exitDy=0;" edge="1" parent="1" source="OWcikNP10raAviJz4xE2-59" target="OWcikNP10raAviJz4xE2-65">
          <mxGeometry relative="1" as="geometry">
            <mxPoint x="360" y="260" as="sourcePoint" />
            <mxPoint x="380" y="310" as="targetPoint" />
          </mxGeometry>
        </mxCell>
        <mxCell id="OWcikNP10raAviJz4xE2-69" value="Relationship" style="shape=rhombus;perimeter=rhombusPerimeter;whiteSpace=wrap;html=1;align=center;" vertex="1" parent="1">
          <mxGeometry x="520" y="340" width="120" height="60" as="geometry" />
        </mxCell>
        <mxCell id="OWcikNP10raAviJz4xE2-70" value="" style="endArrow=none;html=1;rounded=0;entryX=0.5;entryY=1;entryDx=0;entryDy=0;exitX=0.674;exitY=0.148;exitDx=0;exitDy=0;exitPerimeter=0;" edge="1" parent="1" source="OWcikNP10raAviJz4xE2-69" target="OWcikNP10raAviJz4xE2-49">
          <mxGeometry relative="1" as="geometry">
            <mxPoint x="670" y="380" as="sourcePoint" />
            <mxPoint x="540" y="340" as="targetPoint" />
          </mxGeometry>
        </mxCell>
        <mxCell id="OWcikNP10raAviJz4xE2-71" value="" style="endArrow=none;html=1;rounded=0;exitX=1;exitY=0;exitDx=0;exitDy=0;entryX=0;entryY=1;entryDx=0;entryDy=0;" edge="1" parent="1" source="OWcikNP10raAviJz4xE2-17" target="OWcikNP10raAviJz4xE2-69">
          <mxGeometry relative="1" as="geometry">
            <mxPoint x="300" y="400" as="sourcePoint" />
            <mxPoint x="460" y="400" as="targetPoint" />
          </mxGeometry>
        </mxCell>
      </root>
    </mxGraphModel>
  </diagram>
</mxfile>
